<svg width="200" height="200" viewBox="0 0 142 200" fill="none" xmlns="http://www.w3.org/2000/svg">
<path d="M13.157 0H22.1539V8.88906H30.384V0H39.3816V26.9176H30.3848V17.9035H22.1547V26.9176H13.1578V0H13.157ZM51.2125 8.92656H43.2926V0H68.134V8.92656H60.2102V26.9176H51.2133V8.92656H51.2125ZM72.0762 0H81.459L87.2289 9.4582L92.9941 0H102.378V26.9176H93.418V13.5762L87.2285 23.1465H87.0742L80.8805 13.5762V26.9176H72.0762V0ZM106.857 0H115.856V18.0207H128.509V26.9176H106.857V0ZM0 39.2285L12.8695 183.577L70.6211 199.609L128.533 183.554L141.416 39.2281L0 39.2285ZM114.571 73.484L113.765 82.4594L113.411 86.4391H113.353H70.7082H70.6465H45.6637L47.2816 104.567H70.6465H70.7082H107.029H111.8L111.368 109.321L107.207 155.931L106.941 158.92L70.7082 168.963V168.966L70.627 168.989L34.3617 158.921L31.8809 131.123H40.0723H49.6531L50.9137 145.243L70.6301 150.568L70.6465 150.563V150.561L90.393 145.233L92.4465 122.272H70.7082H70.6465H31.0902L26.7391 73.484L26.3152 68.7352H70.6465H70.7082H114.995L114.571 73.484Z" fill="white"/>
</svg>
