<svg width="200" height="200" viewBox="0 0 200 200" fill="none" xmlns="http://www.w3.org/2000/svg">
<path d="M47.1916 71.1177H84.9134V74.1159H50.6494V96.6812H82.8701V99.6793H50.6494V124.454H85.3063V127.452H47.1916V71.1177ZM88.2927 71.1177H92.3006L110.061 95.8922L128.215 71.1177L152.907 39.6484L112.34 98.4958L133.245 127.452H129.079L110.061 101.1L90.9646 127.452H86.8781L107.939 98.4958L88.2927 71.1177ZM134.738 74.1159V71.1177H177.725V74.1159H157.921V127.452H154.463V74.1159H134.738ZM0 71.1177H4.32229L63.9242 160.306L39.2936 127.452L3.61501 75.3783L3.45783 127.452H0V71.1177ZM177.376 123.549C176.67 123.549 176.14 123.002 176.14 122.294C176.14 121.587 176.67 121.039 177.376 121.039C178.091 121.039 178.613 121.587 178.613 122.294C178.613 123.002 178.091 123.549 177.376 123.549ZM180.774 120.248H182.624C182.65 121.25 183.381 121.924 184.458 121.924C185.661 121.924 186.342 121.199 186.342 119.844V111.254H188.226V119.852C188.226 122.294 186.813 123.701 184.475 123.701C182.28 123.701 180.774 122.336 180.774 120.248ZM190.69 120.138H192.557C192.717 121.292 193.844 122.025 195.467 122.025C196.981 122.025 198.091 121.242 198.091 120.164C198.091 119.237 197.384 118.682 195.778 118.303L194.214 117.924C192.019 117.41 191.018 116.349 191.018 114.564C191.018 112.399 192.784 110.959 195.433 110.959C197.897 110.959 199.697 112.399 199.807 114.446H197.973C197.797 113.326 196.821 112.627 195.408 112.627C193.919 112.627 192.927 113.343 192.927 114.437C192.927 115.305 193.566 115.801 195.147 116.172L196.485 116.5C198.974 117.082 200 118.092 200 119.919C200 122.244 198.2 123.701 195.324 123.701C192.633 123.701 190.824 122.311 190.69 120.138Z" fill="white"/>
</svg>
