<svg width="200" height="200" viewBox="0 0 200 200" fill="none" xmlns="http://www.w3.org/2000/svg">
<path style='fill:#2965F1' d="M79.7125 18.2352V26.8359H57.7195V0.195709H79.7125V9.62149H67.1453V18.2352H79.7125ZM102.321 9.62149H111.107V0.195709H89.1113C89.1113 0.195709 89.1113 4.92696 89.1113 9.62149C92.0539 12.5641 93.5883 13.9727 97.8441 18.2285C95.3562 18.2285 89.1113 18.2367 89.1113 18.2367V26.8359H111.107V18.2352L102.321 9.62149ZM133.495 9.62149H142.28V0.195709H120.285C120.285 0.195709 120.285 4.92696 120.285 9.62149C123.227 12.5641 124.762 13.9727 129.018 18.2285C126.531 18.2285 120.285 18.2367 120.285 18.2367V26.8359H142.28V18.2352L133.495 9.62149ZM171.248 39.4969L157.887 184.218L99.9996 199.804L42.1105 184.218L28.752 39.4969H171.248ZM144.327 68.9234H99.9473H54.7832L56.943 86.3996H99.9473H102.363L99.9473 87.4051L58.5148 104.662L59.8891 121.744L99.9473 121.874L121.417 121.942L120.042 144.72L99.9473 150.378V150.36L99.7824 150.405L80.3746 145.506L79.1969 131.367H79.1328H61.1309H61.0676L63.4238 158.663L99.9473 169.463V169.443L100.013 169.463L136.341 158.859L141.055 104.662H99.9473H99.8457L99.9473 104.618L142.559 86.4L144.327 68.9234Z" fill="white"/>
</svg>
