<svg width="100" height="100" viewBox="0 0 200 200" fill="none" xmlns="http://www.w3.org/2000/svg">
<path style='fill:#CF649A' d="M172.088 136.225C172.331 136.219 172.619 136.213 172.913 136.213C178.125 136.213 183.056 137.425 187.431 139.588L187.238 139.5C191.225 141.444 194.5 144.319 196.869 147.844L196.925 147.931C198.794 150.656 199.906 154.025 199.906 157.65C199.906 157.913 199.9 158.175 199.887 158.431V158.394C199.694 162.013 198.05 165.206 195.525 167.444L195.512 167.456C194.131 168.813 192.462 169.875 190.606 170.55L190.512 170.581C189.471 170.79 188.898 170.633 188.794 170.113C188.69 169.592 189.158 169.019 190.2 168.394C193.025 166.681 195.069 163.919 195.812 160.663L195.831 160.581C195.85 160.319 195.863 160.013 195.863 159.7C195.863 157.756 195.4 155.919 194.581 154.294L194.612 154.363C193.256 151.531 191.231 149.206 188.738 147.525L188.675 147.488C184.944 145.088 180.469 143.513 175.656 143.119L175.556 143.113C173.919 142.869 172.031 142.731 170.106 142.731C165.1 142.731 160.319 143.675 155.919 145.394L156.181 145.3C157.088 147.419 157.656 149.875 157.737 152.45V152.481C157.637 157.763 154.8 162.356 150.581 164.919L150.512 164.956C148.575 166.331 146.363 167.538 144.006 168.475L143.787 168.55C142.356 169.25 140.675 169.656 138.9 169.656C138.694 169.656 138.494 169.65 138.294 169.638H138.325C134.371 168.808 133.433 165.371 135.512 159.325C136.419 156.694 137.687 154.413 139.294 152.406L139.256 152.45C141.312 149.763 143.569 147.406 146.062 145.319L146.131 145.263L145.519 144.35C144.375 142.4 143.325 140.131 142.481 137.763L142.394 137.475C141.769 135.392 141.248 133.415 140.831 131.544L140.519 129.356L137.394 135.288C134.685 140.288 132.081 144.66 129.581 148.406L128.644 149.969C129.694 152.519 130.469 155.475 130.819 158.563L130.831 158.719C130.856 159.013 130.869 159.363 130.869 159.713C130.869 164.45 128.531 168.638 124.944 171.194L124.9 171.225C123.187 172.281 121.144 173.375 119.025 174.35L118.65 174.506C116.444 175.463 113.887 176.088 111.206 176.225H111.15C110.944 176.238 110.7 176.25 110.456 176.25C108.894 176.25 107.412 175.894 106.087 175.263L106.15 175.288C105.356 174.606 104.856 173.606 104.856 172.488C104.856 171.919 104.987 171.375 105.219 170.894L105.206 170.919C107.706 167.413 110.169 164.363 112.787 161.45L112.706 161.544L119.581 152.8L118.338 149.988C117.338 148.15 116.381 145.981 115.612 143.731L115.525 143.431C114.9 141.348 114.379 139.371 113.962 137.5L113.65 135.313L110.525 142.813C108.029 148.642 105.737 153.64 103.65 157.806C100.537 164.056 97.9333 168.848 95.8375 172.181L95.2125 173.119C92.7167 177.073 90.3208 179.05 88.025 179.05C85.7292 179.05 84.1729 177.592 83.3563 174.675C82.7563 172.525 82.4062 170.056 82.4062 167.506C82.4062 167.281 82.4063 167.056 82.4125 166.831V166.863L83.0375 162.488V162.8C81.3708 166.754 79.7042 170.398 78.0375 173.731C76.9313 175.894 75.7938 177.738 74.5188 179.475L74.6 179.356C73.3125 180.706 71.5 181.544 69.4938 181.544C69.475 181.544 69.4625 181.544 69.4437 181.544C69.3125 181.556 69.1625 181.556 69.0125 181.556C67.4313 181.556 65.9938 180.956 64.9062 179.975L64.9125 179.981C62.7313 177.744 61.1125 174.95 60.275 171.831L60.2438 171.7C59.2188 168.856 58.6313 165.569 58.6313 162.144C58.6313 161.7 58.6438 161.263 58.6625 160.831V160.894C59.1563 155.919 60.15 151.363 61.6063 147.019L61.475 147.463L50.2313 154.025V154.338C51.8625 157.725 52.8188 161.7 52.8188 165.9C52.8188 166.669 52.7875 167.431 52.725 168.181L52.7313 168.081C52.4 174.519 50.3438 180.413 47.025 185.394L47.1062 185.269C43.625 190.794 38.6063 195.063 32.6437 197.531L32.4375 197.606C29.0813 199.113 25.1562 199.994 21.0312 199.994C18.4188 199.994 15.8812 199.644 13.4812 198.981L13.6812 199.025C11.6937 198.356 10.0688 197.031 9.0375 195.319L9.01875 195.281C7.5625 193.169 6.64375 190.588 6.5 187.806V187.769C6.43125 187.138 6.39375 186.406 6.39375 185.663C6.39375 182.456 7.125 179.419 8.43125 176.713L8.375 176.838C11.9625 170.719 16.925 165.763 22.85 162.275L23.0375 162.175C27.2312 159.269 32.05 156.45 37.0812 153.994L37.7438 153.7L39.3063 152.763C37.4313 151.304 33.9938 148.804 28.9937 145.263C22.3125 140.788 16.5063 136.269 11.0313 131.381L11.1875 131.519C5.89375 126.963 2.0375 120.875 0.30625 113.944L0.25625 113.706C0.09375 112.744 0 111.638 0 110.513C0 106.988 0.90625 103.675 2.49375 100.794L2.44375 100.9C5.94375 93.375 10.7937 87.0313 16.7437 81.9313L16.8188 81.8688C23.2563 75.7875 30.5437 70.4938 38.4562 66.2063L39 65.9375C46.0687 61.8563 54.325 58.0625 62.9313 55.0188L63.9938 54.6938C71.9875 51.7688 81.2188 50.0563 90.8438 50.025H90.8563C91.2938 50.0125 91.8125 50 92.3313 50C100.088 50 107.425 51.7938 113.95 54.9875L113.662 54.8563C119.287 57.4188 123.5 62.2438 125.187 68.1438L125.225 68.2938C125.744 70.3063 126.038 72.6188 126.038 75C126.038 78.95 125.219 82.7125 123.75 86.125L123.819 85.9438C121.144 92.425 117.338 97.9438 112.588 102.488L112.569 102.506C107.756 107.275 101.988 111.088 95.5813 113.631L95.2375 113.75C88.525 116.631 80.7313 118.444 72.55 118.744L72.4313 118.75C71.2313 118.888 69.8438 118.963 68.4375 118.963C64.7375 118.963 61.1688 118.431 57.7938 117.438L58.0625 117.506C55.0438 116.544 52.4375 115.05 50.225 113.113L50.25 113.131C48.7 111.869 47.4375 110.313 46.5375 108.544L46.5 108.463C45.875 106.796 45.8229 105.806 46.3438 105.494C46.8646 105.181 47.2292 105.129 47.4375 105.338L49 106.9C50.7438 108.519 52.825 109.794 55.125 110.606L55.25 110.644C58.4125 111.744 62.0625 112.381 65.8563 112.381C67.075 112.381 68.275 112.319 69.4563 112.188L69.3125 112.2C79.425 111.006 88.5438 107.556 96.4125 102.369L96.1813 102.513C102.831 98.5563 108.213 93.1188 112 86.6375L112.112 86.425C113.994 83.6625 115.119 80.25 115.119 76.575C115.119 74.3188 114.694 72.1563 113.919 70.1688L113.962 70.2875C111.625 66.5938 107.844 63.9938 103.431 63.275L103.344 63.2625C99.9187 62.4188 95.9812 61.9313 91.9375 61.9313C88.6813 61.9313 85.4938 62.2438 82.4125 62.8438L82.725 62.7938C72.1813 64.6938 62.7563 67.95 54.0625 72.425L54.6313 72.1563C29.0146 85.0729 15.7875 98.3 14.95 111.838V112.144C14.95 117.6 17.0938 122.556 20.5875 126.219L20.5812 126.213C24.5625 130.638 28.9625 134.544 33.7687 137.919L34.0125 138.081C38.3937 141.356 42.2687 144.738 45.875 148.388L45.8813 148.4L46.5062 149.025L66.5063 138.094C68.7875 134.794 71.5312 132.006 74.6813 129.756L74.7812 129.688C77.2812 127.588 80.4563 126.219 83.9375 125.944L83.9938 125.938C84.1188 125.925 84.2625 125.925 84.4125 125.925C86.7438 125.925 88.7438 127.331 89.6063 129.344L89.6188 129.381C90.275 130.85 90.6562 132.569 90.6562 134.375C90.6562 134.925 90.6188 135.469 90.55 136.006L90.5563 135.944L89.95 139.025L90.8875 138.4C91.5375 137.906 92.3563 137.613 93.2438 137.613C93.8063 137.613 94.3375 137.731 94.8188 137.944L94.7938 137.931C95.9938 138.244 96.8625 139.319 96.8625 140.594C96.8625 140.813 96.8375 141.025 96.7875 141.231L96.7938 141.213L95.8563 144.65C93.9813 152.146 92.7333 157.56 92.1125 160.894C91.8 161.975 91.625 163.219 91.625 164.506C91.625 164.775 91.6313 165.038 91.65 165.3V165.263C91.7542 166.513 91.9104 167.138 92.1188 167.138C92.3271 167.138 92.7417 166.513 93.3625 165.263L94.3 163.075C94.5083 163.075 94.5083 163.179 94.3 163.388L97.7375 156.2C105.863 138.292 110.235 128.292 110.856 126.2L112.731 120.269C112.94 119.852 113.773 119.438 115.231 119.025C116.713 118.625 118.406 118.394 120.156 118.394C120.3 118.394 120.444 118.394 120.581 118.4H120.562C123.479 118.4 124.938 119.129 124.938 120.588L124.625 122.15C123.925 124.075 123.231 126.481 122.694 128.944L122.625 129.338C122.5 130.144 122.425 131.069 122.425 132.019C122.425 133.281 122.55 134.513 122.794 135.706L122.775 135.588L123.088 136.831C123.725 139.438 124.694 141.725 125.962 143.813L125.9 143.706C128.396 139.544 130.792 135.275 133.087 130.9C134.9 127.881 136.587 124.381 137.944 120.719L138.087 120.281C138.556 117.925 139.094 115.938 139.75 114L139.65 114.35C139.858 113.725 140.748 113.256 142.319 112.944C143.806 112.644 145.512 112.475 147.256 112.475H147.481H147.469C150.385 112.475 151.942 113.204 152.137 114.663L151.512 115.906C150.769 118.006 150.119 120.531 149.681 123.125L149.644 123.406C149.587 124.013 149.55 124.713 149.55 125.425C149.55 126.919 149.7 128.381 149.981 129.794L149.956 129.65V130.894C150.675 133.619 151.744 136.013 153.144 138.181L153.081 138.081L154.019 140.269C159.238 137.706 165.375 136.206 171.862 136.206H172.106H172.094L172.088 136.225ZM38.0938 181.556C42.4375 177.069 45.1187 170.944 45.1187 164.194C45.1187 161.588 44.7188 159.075 43.9812 156.713L44.0312 156.888L39.0312 160.013C33.9312 162.919 29.5188 166.163 25.525 169.85L25.575 169.806C22.5438 172.594 20.3062 176.2 19.2062 180.269L19.1687 180.425C18.2312 184.279 18.7 186.779 20.575 187.925C21.7187 188.45 23.0625 188.756 24.4688 188.756C26.0063 188.756 27.4625 188.394 28.7437 187.744L28.6875 187.769C32.4 186.419 35.5438 184.275 38.0438 181.531L38.0625 181.513L38.0938 181.556ZM79.95 152.781C80.9917 150.073 82.1375 146.844 83.3875 143.094C85.0542 138.094 85.6271 135.179 85.1063 134.35C84.5854 133.521 83.5958 133.417 82.1375 134.038C80.4 134.881 78.9438 136.038 77.7813 137.456L77.7625 137.481C76.4625 139.125 75.225 140.963 74.125 142.894L74.0125 143.106C72.75 145.175 71.6813 147.556 70.9375 150.081L70.8813 150.294C69.675 153.563 68.975 157.344 68.975 161.281C68.975 161.813 68.9875 162.338 69.0125 162.863V162.788C69.2208 166.95 69.8875 169.19 71.0125 169.506C72.1375 169.823 73.4396 168.313 74.9188 164.975C76.35 162.394 77.625 159.394 78.575 156.25L78.6625 155.913C79.2833 154.438 79.7083 153.394 79.9375 152.781H79.95ZM114.612 169.344C118.944 167.4 121.994 163.306 122.419 158.463L122.425 158.413V158.1L118.988 162.475L112.744 169.35C112.65 169.425 112.588 169.538 112.588 169.663C112.588 169.788 112.65 169.9 112.738 169.975C112.938 170.179 113.562 169.971 114.612 169.35V169.344ZM141.481 163.406C146.206 162.056 149.606 157.775 149.606 152.706C149.606 152.625 149.606 152.544 149.606 152.463V152.475C149.544 151.225 149.319 150.05 148.95 148.938L148.975 149.031C146.544 151.194 144.55 153.781 143.106 156.7L143.037 156.844C141.158 160.59 140.633 162.773 141.462 163.394L141.481 163.406Z" fill="white"/>
</svg>
