<svg width="200" height="200" viewBox="0 0 200 200" fill="none" xmlns="http://www.w3.org/2000/svg">
<g clip-path="url(#clip0_11_18)">
<path d="M0 100V200H200V0H0V100ZM161.175 92.0333C166.258 93.3 170.125 95.5583 173.683 99.2417C175.525 101.208 178.258 104.792 178.475 105.658C178.542 105.908 169.842 111.742 164.575 115.017C164.383 115.142 163.617 114.317 162.767 113.05C160.183 109.3 157.492 107.683 153.367 107.4C147.3 106.983 143.4 110.158 143.433 115.458C143.378 116.762 143.671 118.056 144.283 119.208C145.617 121.967 148.1 123.625 155.867 126.983C170.192 133.15 176.317 137.208 180.125 142.983C184.375 149.425 185.333 159.717 182.442 167.367C179.275 175.683 171.4 181.333 160.317 183.2C156.892 183.808 148.767 183.717 145.083 183.05C137.05 181.617 129.433 177.65 124.733 172.442C122.892 170.417 119.3 165.108 119.525 164.733C119.617 164.6 120.442 164.092 121.358 163.558C122.258 163.05 125.617 161.108 128.792 159.267L134.542 155.933L135.75 157.717C137.433 160.283 141.108 163.808 143.333 164.983C149.717 168.35 158.475 167.875 162.792 164C163.66 163.269 164.347 162.347 164.799 161.306C165.252 160.265 165.457 159.134 165.4 158C165.4 155.683 165.108 154.667 163.9 152.917C162.35 150.7 159.175 148.833 150.158 144.917C139.842 140.475 135.4 137.717 131.333 133.333C128.795 130.441 126.921 127.027 125.842 123.333C125.083 120.508 124.892 113.425 125.492 110.575C127.617 100.6 135.142 93.6583 146 91.5917C149.525 90.925 157.717 91.175 161.175 92.0333ZM114.225 100.383L114.292 108.575H88.25V182.542H69.8333V108.575H43.8167V100.542C43.8167 96.0917 43.9083 92.375 44.0333 92.2917C44.1333 92.1583 59.975 92.0917 79.175 92.125L114.133 92.225L114.225 100.383Z" fill="white"/>
</g>
<defs>
<clipPath id="clip0_11_18">
<rect width="200" height="200" fill="white"/>
</clipPath>
</defs>
</svg>
