<svg width="200" height="200" viewBox="0 0 200 200" fill="none" xmlns="http://www.w3.org/2000/svg">
<path d="M160.414 70.5937C158.417 69.9114 156.405 69.276 154.379 68.6875C154.715 67.3203 155.025 65.9453 155.309 64.5625C159.879 42.3359 156.891 24.4297 146.691 18.5351C136.926 12.8789 120.91 18.7734 104.754 32.8672C103.165 34.2578 101.609 35.6901 100.086 37.1641C99.0703 36.1849 98.0287 35.2266 96.9609 34.2891C80.0274 19.2187 63.0547 12.8711 52.8672 18.7851C43.1016 24.4531 40.1992 41.2851 44.3125 62.3516C44.724 64.4349 45.1862 66.5091 45.6992 68.5742C43.2969 69.2578 40.9766 69.9883 38.7578 70.7617C18.9297 77.6953 6.25 88.5664 6.25 99.8398C6.25 111.488 19.8594 123.168 40.5352 130.25C42.2122 130.82 43.9049 131.35 45.6133 131.84C45.0586 134.051 44.5677 136.286 44.1406 138.547C40.2344 159.25 43.2813 175.684 53.0273 181.316C63.0938 187.133 79.9805 181.156 96.4414 166.742C97.7435 165.602 99.0456 164.397 100.348 163.129C101.994 164.72 103.686 166.264 105.426 167.762C121.363 181.504 137.102 187.055 146.832 181.406C156.891 175.57 160.16 157.914 155.914 136.434C155.589 134.793 155.214 133.118 154.789 131.41C155.977 131.059 157.139 130.695 158.277 130.32C179.762 123.184 193.758 111.645 193.758 99.8515C193.75 88.5234 180.664 77.582 160.414 70.5937ZM110.023 38.9219C123.863 26.8476 136.801 22.082 142.699 25.4883C148.977 29.1172 151.418 43.75 147.473 62.9414C147.212 64.1914 146.931 65.4375 146.629 66.6797C138.37 64.801 129.994 63.4752 121.559 62.7109C116.729 55.7534 111.434 49.1303 105.711 42.8867C107.112 41.5273 108.547 40.2057 110.016 38.9219H110.023ZM61.6133 109.473C63.3086 112.754 65.0807 115.995 66.9297 119.195C68.8125 122.461 70.7747 125.678 72.8164 128.848C67.012 128.217 61.2439 127.287 55.5352 126.062C57.1914 120.703 59.2305 115.137 61.6133 109.473ZM61.6133 90.5937C59.2695 85.0508 57.2852 79.5976 55.6563 74.332C61.0078 73.1328 66.7109 72.1523 72.6563 71.4101C70.6641 74.5195 68.7474 77.6745 66.9063 80.875C65.0651 84.0755 63.2969 87.3151 61.6016 90.5937H61.6133ZM65.8711 100.035C68.3399 94.8867 70.9987 89.8372 73.8477 84.8867C76.694 79.9388 79.724 75.1042 82.9375 70.3828C88.5156 69.9609 94.2344 69.7383 100.012 69.7383C105.789 69.7383 111.543 69.9609 117.117 70.3867C120.297 75.0976 123.309 79.9154 126.152 84.8398C128.996 89.7643 131.69 94.7904 134.234 99.918C131.724 105.085 129.036 110.155 126.172 115.129C123.331 120.077 120.336 124.926 117.188 129.676C111.621 130.066 105.859 130.281 100 130.281C94.1406 130.281 88.4883 130.098 83.0234 129.742C79.7865 125.005 76.7318 120.15 73.8594 115.176C70.987 110.202 68.3203 105.155 65.8594 100.035H65.8711ZM133.105 119.141C134.993 115.865 136.806 112.546 138.543 109.184C140.924 114.582 143.026 120.1 144.84 125.715C139.064 127.015 133.224 128.013 127.344 128.703C129.328 125.555 131.249 122.367 133.105 119.141ZM138.465 90.5976C136.736 87.3034 134.938 84.0482 133.07 80.832C131.247 77.6601 129.348 74.5273 127.371 71.4336C133.352 72.1914 139.09 73.1992 144.469 74.4297C142.739 79.9161 140.736 85.3122 138.465 90.5976ZM100.09 48.625C103.99 52.8871 107.674 57.3433 111.125 61.9766C103.742 61.625 96.3542 61.625 88.9609 61.9766C92.6055 57.1562 96.3359 52.6836 100.09 48.625ZM56.8984 25.7266C63.1719 22.0859 77.043 27.2891 91.6641 40.2851C92.5977 41.1172 93.5391 41.9883 94.4766 42.8906C88.7241 49.1333 83.3921 55.7507 78.5156 62.6992C70.0986 63.4576 61.7399 64.7624 53.4922 66.6055C53.0156 64.6888 52.5859 62.7591 52.2031 60.8164C48.668 42.7578 51.0078 29.1445 56.8984 25.7266ZM47.7539 124.105C46.1914 123.66 44.6484 123.177 43.125 122.656C33.9844 119.531 26.4336 115.453 21.25 111.012C16.6094 107.031 14.2578 103.059 14.2578 99.8398C14.2578 93 24.4375 84.2734 41.4141 78.3555C43.5469 77.6133 45.6979 76.9349 47.8672 76.3203C50.3885 84.423 53.442 92.3504 57.0078 100.051C53.3995 107.858 50.3082 115.893 47.7539 124.105ZM91.1641 160.695C83.8867 167.07 76.5977 171.59 70.1719 173.867C64.3984 175.91 59.8008 175.969 57.0234 174.363C51.1094 170.945 48.6484 157.746 52.0039 140.043C52.4023 137.96 52.8581 135.876 53.3711 133.793C61.7013 135.587 70.144 136.813 78.6406 137.461C83.5647 144.446 88.9408 151.101 94.7344 157.383C93.5703 158.527 92.3789 159.629 91.1641 160.695ZM100.313 151.625C96.5156 147.52 92.7266 142.977 89.0313 138.094C92.6224 138.234 96.2787 138.305 100 138.305C103.82 138.305 107.602 138.223 111.328 138.055C107.889 142.762 104.212 147.292 100.313 151.625ZM148.953 162.793C147.836 168.824 145.59 172.848 142.813 174.457C136.902 177.887 124.266 173.43 110.641 161.676C109.078 160.332 107.516 158.891 105.926 157.379C111.607 151.072 116.857 144.39 121.641 137.379C130.184 136.655 138.668 135.343 147.031 133.453C147.414 135 147.753 136.516 148.047 138C149.926 147.492 150.195 156.078 148.953 162.793ZM155.75 122.699C154.727 123.039 153.672 123.367 152.602 123.688C149.979 115.547 146.806 107.593 143.105 99.8828C146.668 92.275 149.716 84.4372 152.23 76.4219C154.148 76.9805 156.012 77.5664 157.805 78.1875C175.156 84.1719 185.742 93.0312 185.742 99.8398C185.742 107.105 174.309 116.535 155.75 122.699Z" fill="white"/>
<path d="M100 116.621C103.324 116.632 106.577 115.656 109.347 113.817C112.116 111.978 114.277 109.358 115.557 106.29C116.837 103.222 117.177 99.8428 116.535 96.581C115.894 93.3191 114.298 90.3211 111.951 87.9665C109.604 85.612 106.611 84.0068 103.352 83.3542C100.092 82.7017 96.7119 83.0311 93.6395 84.3008C90.5671 85.5705 87.9405 87.7233 86.0924 90.4867C84.2443 93.2501 83.2578 96.4998 83.2578 99.8242C83.2532 102.027 83.6827 104.209 84.5217 106.245C85.3608 108.281 86.593 110.132 88.1478 111.692C89.7027 113.252 91.5498 114.491 93.5834 115.336C95.6171 116.182 97.7975 116.619 100 116.621Z" fill="white"/>
</svg>
