<svg width="200" height="200" viewBox="0 0 200 200" fill="none" xmlns="http://www.w3.org/2000/svg">
<g clip-path="url(#clip0_11_16)">
<path fill-rule="evenodd" clip-rule="evenodd" d="M41.5407 16.6667C30.1288 16.6667 21.6847 26.6548 22.0627 37.487C22.4254 47.8938 21.9542 61.3718 18.561 72.3633C15.1577 83.3867 9.40167 90.37 0 91.2667V101.388C9.40167 102.285 15.1577 109.268 18.561 120.292C21.9542 131.283 22.4254 144.762 22.0627 155.168C21.6847 165.999 30.1288 175.988 41.5423 175.988H158.474C169.887 175.988 178.329 166.001 177.951 155.168C177.588 144.762 178.059 131.283 181.452 120.292C184.857 109.268 190.598 102.285 200 101.388V91.2667C190.598 90.37 184.857 83.3867 181.452 72.3633C178.059 61.3734 177.588 47.8938 177.951 37.487C178.329 26.6565 169.887 16.6667 158.474 16.6667H41.5407ZM135.593 114.739C135.593 129.655 124.467 138.701 106.005 138.701H74.5762C73.6772 138.701 72.815 138.343 72.1793 137.708C71.5436 137.072 71.1864 136.21 71.1864 135.311V57.3447C71.1864 56.4456 71.5436 55.5834 72.1793 54.9477C72.815 54.3119 73.6772 53.9548 74.5762 53.9548H105.826C121.22 53.9548 131.323 62.2938 131.323 75.0972C131.323 84.0833 124.527 92.1292 115.868 93.5375V94.0075C127.656 95.3008 135.593 103.463 135.593 114.739ZM102.578 64.7006H84.6575V90.0125H99.7508C111.418 90.0125 117.852 85.3142 117.852 76.9158C117.852 69.0463 112.32 64.7006 102.578 64.7006ZM84.6575 100.057V127.952H103.237C115.385 127.952 121.82 123.077 121.82 113.916C121.82 104.753 115.205 100.055 102.456 100.055L84.6575 100.057Z" fill="white"/>
</g>
<defs>
<clipPath id="clip0_11_16">
<rect width="200" height="200" fill="white"/>
</clipPath>
</defs>
</svg>
