<svg width="100" height="100" viewBox="0 0 200 200"  xmlns="http://www.w3.org/2000/svg">
<g clip-path="url(#clip0_11_13)">
<path style='fill:yellow'  d="M0.393727 0.195312C0.17107 0.227734 0.187477 0.496094 0.203492 0.764844C0.203492 67.0414 0.203492 133.308 0.203492 199.583C66.3613 200.026 133.332 199.646 199.805 199.773C199.805 133.246 199.805 66.7219 199.805 0.195312C133.337 0.195312 66.8621 0.195312 0.393727 0.195312ZM101.521 176.628C96.9027 181.284 89.6152 184.025 80.65 184.025C65.9457 184.025 57.7816 176.861 52.5703 166.951C57.5867 163.748 62.7133 160.653 67.939 157.656C70.0703 163.618 77.2695 170.32 85.3933 166.194C90.5429 163.577 89.9484 155.643 89.9484 147.032C89.9484 129.152 89.9484 108.525 89.9484 92.3945C89.932 92.1258 89.916 91.8574 90.1367 91.825C96.2722 91.825 102.407 91.825 108.541 91.825C108.541 106.195 108.541 122.451 108.541 137.735C108.541 154.375 109.73 168.355 101.521 176.628ZM183.866 160.124C182.821 175.704 170.099 183.977 152.94 184.025C136.119 184.074 125.352 176.598 118.786 165.054C123.507 161.805 128.856 159.188 133.777 156.139C137.714 162.296 144.533 168.213 154.647 167.331C160.948 166.782 168.263 161.646 164.134 153.862C162.131 150.088 157.291 148.171 152.94 146.274C139.13 140.249 122.929 134.723 124.478 113.074C124.997 105.842 128.327 100.759 132.638 97.1379C137.057 93.427 142.974 90.9398 150.853 90.6883C165.161 90.2301 173.01 96.5945 178.364 105.487C173.808 108.96 168.788 111.974 163.754 114.971C162.102 109.895 154.128 104.949 147.437 107.952C144.395 109.317 141.661 113.328 143.264 118.196C144.693 122.538 150.525 124.914 155.216 126.924C169.416 133.002 185.286 138.943 183.866 160.124Z"/>
</g>
<defs>
<clipPath id="clip0_11_13">
<rect width="200" height="200" />
</clipPath>
</defs>
</svg>
