<svg id="visual" viewBox="0 0 900 600" width="900" height="600" xmlns="http://www.w3.org/2000/svg" xmlns:xlink="http://www.w3.org/1999/xlink" version="1.1"><rect x="0" y="0" width="900" height="600" fill="#001220"></rect><defs><linearGradient id="grad1_0" x1="33.3%" y1="0%" x2="100%" y2="100%"><stop offset="20%" stop-color="#fbae3c" stop-opacity="1"></stop><stop offset="80%" stop-color="#fbae3c" stop-opacity="1"></stop></linearGradient></defs><defs><linearGradient id="grad1_1" x1="33.3%" y1="0%" x2="100%" y2="100%"><stop offset="20%" stop-color="#fbae3c" stop-opacity="1"></stop><stop offset="80%" stop-color="#f48350" stop-opacity="1"></stop></linearGradient></defs><defs><linearGradient id="grad1_2" x1="33.3%" y1="0%" x2="100%" y2="100%"><stop offset="20%" stop-color="#d96162" stop-opacity="1"></stop><stop offset="80%" stop-color="#f48350" stop-opacity="1"></stop></linearGradient></defs><defs><linearGradient id="grad1_3" x1="33.3%" y1="0%" x2="100%" y2="100%"><stop offset="20%" stop-color="#d96162" stop-opacity="1"></stop><stop offset="80%" stop-color="#af4b6d" stop-opacity="1"></stop></linearGradient></defs><defs><linearGradient id="grad1_4" x1="33.3%" y1="0%" x2="100%" y2="100%"><stop offset="20%" stop-color="#7c3e6b" stop-opacity="1"></stop><stop offset="80%" stop-color="#af4b6d" stop-opacity="1"></stop></linearGradient></defs><defs><linearGradient id="grad1_5" x1="33.3%" y1="0%" x2="100%" y2="100%"><stop offset="20%" stop-color="#7c3e6b" stop-opacity="1"></stop><stop offset="80%" stop-color="#49335c" stop-opacity="1"></stop></linearGradient></defs><defs><linearGradient id="grad1_6" x1="33.3%" y1="0%" x2="100%" y2="100%"><stop offset="20%" stop-color="#1d2540" stop-opacity="1"></stop><stop offset="80%" stop-color="#49335c" stop-opacity="1"></stop></linearGradient></defs><defs><linearGradient id="grad1_7" x1="33.3%" y1="0%" x2="100%" y2="100%"><stop offset="20%" stop-color="#1d2540" stop-opacity="1"></stop><stop offset="80%" stop-color="#001220" stop-opacity="1"></stop></linearGradient></defs><defs><linearGradient id="grad2_0" x1="0%" y1="0%" x2="66.7%" y2="100%"><stop offset="20%" stop-color="#fbae3c" stop-opacity="1"></stop><stop offset="80%" stop-color="#fbae3c" stop-opacity="1"></stop></linearGradient></defs><defs><linearGradient id="grad2_1" x1="0%" y1="0%" x2="66.7%" y2="100%"><stop offset="20%" stop-color="#f48350" stop-opacity="1"></stop><stop offset="80%" stop-color="#fbae3c" stop-opacity="1"></stop></linearGradient></defs><defs><linearGradient id="grad2_2" x1="0%" y1="0%" x2="66.7%" y2="100%"><stop offset="20%" stop-color="#f48350" stop-opacity="1"></stop><stop offset="80%" stop-color="#d96162" stop-opacity="1"></stop></linearGradient></defs><defs><linearGradient id="grad2_3" x1="0%" y1="0%" x2="66.7%" y2="100%"><stop offset="20%" stop-color="#af4b6d" stop-opacity="1"></stop><stop offset="80%" stop-color="#d96162" stop-opacity="1"></stop></linearGradient></defs><defs><linearGradient id="grad2_4" x1="0%" y1="0%" x2="66.7%" y2="100%"><stop offset="20%" stop-color="#af4b6d" stop-opacity="1"></stop><stop offset="80%" stop-color="#7c3e6b" stop-opacity="1"></stop></linearGradient></defs><defs><linearGradient id="grad2_5" x1="0%" y1="0%" x2="66.7%" y2="100%"><stop offset="20%" stop-color="#49335c" stop-opacity="1"></stop><stop offset="80%" stop-color="#7c3e6b" stop-opacity="1"></stop></linearGradient></defs><defs><linearGradient id="grad2_6" x1="0%" y1="0%" x2="66.7%" y2="100%"><stop offset="20%" stop-color="#49335c" stop-opacity="1"></stop><stop offset="80%" stop-color="#1d2540" stop-opacity="1"></stop></linearGradient></defs><defs><linearGradient id="grad2_7" x1="0%" y1="0%" x2="66.7%" y2="100%"><stop offset="20%" stop-color="#001220" stop-opacity="1"></stop><stop offset="80%" stop-color="#1d2540" stop-opacity="1"></stop></linearGradient></defs><g transform="translate(900, 0)"><path d="M0 351.5C-40.9 331.3 -81.7 311.1 -121.7 293.8C-161.7 276.5 -200.8 262 -236.9 236.9C-273 211.7 -306.2 175.8 -324.8 134.5C-343.4 93.3 -347.5 46.6 -351.5 0L0 0Z" fill="#0c1c30"></path><path d="M0 307.6C-35.8 289.9 -71.5 272.2 -106.5 257.1C-141.5 241.9 -175.7 229.3 -207.3 207.3C-238.9 185.2 -267.9 153.8 -284.2 117.7C-300.5 81.6 -304 40.8 -307.6 0L0 0Z" fill="#312c4f"></path><path d="M0 263.7C-30.6 248.5 -61.3 233.3 -91.3 220.3C-121.3 207.4 -150.6 196.5 -177.7 177.7C-204.8 158.8 -229.6 131.8 -243.6 100.9C-257.5 69.9 -260.6 35 -263.7 0L0 0Z" fill="#623965"></path><path d="M0 219.7C-25.5 207.1 -51.1 194.4 -76.1 183.6C-101 172.8 -125.5 163.8 -148.1 148.1C-170.6 132.3 -191.4 109.9 -203 84.1C-214.6 58.3 -217.2 29.1 -219.7 0L0 0Z" fill="#96446e"></path><path d="M0 175.8C-20.4 165.7 -40.9 155.6 -60.8 146.9C-80.8 138.2 -100.4 131 -118.4 118.4C-136.5 105.9 -153.1 87.9 -162.4 67.3C-171.7 46.6 -173.7 23.3 -175.8 0L0 0Z" fill="#c55469"></path><path d="M0 131.8C-15.3 124.2 -30.6 116.7 -45.6 110.2C-60.6 103.7 -75.3 98.3 -88.8 88.8C-102.4 79.4 -114.8 65.9 -121.8 50.4C-128.8 35 -130.3 17.5 -131.8 0L0 0Z" fill="#e9705a"></path><path d="M0 87.9C-10.2 82.8 -20.4 77.8 -30.4 73.4C-40.4 69.1 -50.2 65.5 -59.2 59.2C-68.3 52.9 -76.5 43.9 -81.2 33.6C-85.8 23.3 -86.9 11.7 -87.9 0L0 0Z" fill="#fa9845"></path><path d="M0 43.9C-5.1 41.4 -10.2 38.9 -15.2 36.7C-20.2 34.6 -25.1 32.8 -29.6 29.6C-34.1 26.5 -38.3 22 -40.6 16.8C-42.9 11.7 -43.4 5.8 -43.9 0L0 0Z" fill="#fbae3c"></path></g><g transform="translate(0, 600)"><path d="M0 -351.5C40.1 -334.5 80.1 -317.5 125.9 -304C171.7 -290.4 223.1 -280.3 248.6 -248.6C274.1 -216.9 273.6 -163.7 286.4 -118.6C299.2 -73.6 325.4 -36.8 351.5 0L0 0Z" fill="#0c1c30"></path><path d="M0 -307.6C35.1 -292.7 70.1 -277.8 110.2 -266C150.2 -254.1 195.2 -245.2 217.5 -217.5C239.8 -189.8 239.4 -143.2 250.6 -103.8C261.8 -64.4 284.7 -32.2 307.6 0L0 0Z" fill="#312c4f"></path><path d="M0 -263.7C30.1 -250.9 60.1 -238.1 94.4 -228C128.7 -217.8 167.3 -210.2 186.4 -186.4C205.5 -162.7 205.2 -122.7 214.8 -89C224.4 -55.2 244 -27.6 263.7 0L0 0Z" fill="#623965"></path><path d="M0 -219.7C25 -209.1 50.1 -198.5 78.7 -190C107.3 -181.5 139.4 -175.2 155.4 -155.4C171.3 -135.6 171 -102.3 179 -74.1C187 -46 203.4 -23 219.7 0L0 0Z" fill="#96446e"></path><path d="M0 -175.8C20 -167.3 40.1 -158.8 63 -152C85.8 -145.2 111.5 -140.1 124.3 -124.3C137 -108.4 136.8 -81.8 143.2 -59.3C149.6 -36.8 162.7 -18.4 175.8 0L0 0Z" fill="#c55469"></path><path d="M0 -131.8C15 -125.4 30.1 -119.1 47.2 -114C64.4 -108.9 83.7 -105.1 93.2 -93.2C102.8 -81.3 102.6 -61.4 107.4 -44.5C112.2 -27.6 122 -13.8 131.8 0L0 0Z" fill="#e9705a"></path><path d="M0 -87.9C10 -83.6 20 -79.4 31.5 -76C42.9 -72.6 55.8 -70.1 62.1 -62.1C68.5 -54.2 68.4 -40.9 71.6 -29.7C74.8 -18.4 81.3 -9.2 87.9 0L0 0Z" fill="#fa9845"></path><path d="M0 -43.9C5 -41.8 10 -39.7 15.7 -38C21.5 -36.3 27.9 -35 31.1 -31.1C34.3 -27.1 34.2 -20.5 35.8 -14.8C37.4 -9.2 40.7 -4.6 43.9 0L0 0Z" fill="#fbae3c"></path></g></svg>